<svg height="580" width="580" xmlns="http://www.w3.org/2000/svg"><path d="m66.275 1.768c-41.335 0-64.571 21.371-64.571 65.036v450.123c0 40.844 20.895 62.229 62.192 62.229h452.024c41.307 0 62.229-20.315 62.229-62.229v-450.123c0-42.601-20.922-65.036-63.521-65.036-.004 0-448.495-.143-448.353 0z" fill="#111" stroke="#eee" stroke-width="3.408"/><path d="m358.48228 147.56154c-.0003-10.3425-3.5147-19.05792-10.5435-26.14631-7.0294-7.08771-15.4114-10.63175-25.1465-10.63206-9.7242.00031-18.0128 3.54435-24.8656 10.63206-6.8533 7.08839-10.2798 15.80381-10.2798 26.14631 0 10.33145 3.4265 19.04104 10.2798 26.12879 6.8528 7.08832 15.1414 10.63236 24.8656 10.63211 9.7351.00025 18.1171-3.54379 25.1465-10.63211 7.0288-7.08775 10.5432-15.79734 10.5435-26.12879z" fill="#fff"/><g stroke="#fff"><path d="m393.88551 523.2209v-181.85456" fill="#fff" fill-rule="evenodd" stroke-linecap="round" stroke-width="52.718948"/><path d="m388.61032 350.66661-46.58384-123.77079" fill="#fff" fill-rule="evenodd" stroke-linecap="round" stroke-width="67.09684"/><path d="m246.62988 197.44284 36.8309 56.17106 67.5765-29.72146" fill="none" stroke-linecap="round" stroke-linejoin="round" stroke-width="43.133327"/><path d="m247.50998 198.54508-15.288-31.45278 7.5267-10.58975-67.4461-124.496579-11.2278 6.628829-5.7915 3.419337-11.253 6.643862 63.9152 126.581141 12.4138-1.18307 17.0662 30.40285 6.1135-.96032z" fill="#fff" fill-rule="evenodd" stroke-linejoin="round" stroke-width="4.313368"/><path d="m244.55028 358.58202h-24.6667" fill="none" stroke-linecap="round" stroke-linejoin="round" stroke-width="20"/><path d="m217.72488 548.24339.1587-165.66137" fill="none" stroke-linecap="round" stroke-linejoin="round" stroke-width="20"/><path d="m257.72488 548.24339.1587-165.66137" fill="none" stroke-linecap="round" stroke-linejoin="round" stroke-width="20"/><path d="m297.72488 548.24339.1587-165.66137" fill="none" stroke-linecap="round" stroke-linejoin="round" stroke-width="20"/><path d="m296.55028 358.58202h-24.6667" fill="none" stroke-linecap="round" stroke-linejoin="round" stroke-width="20"/></g></svg>